<?xml version="1.0" encoding="UTF-8"?>
<svg width="709px" height="308px" viewBox="0 0 709 308" version="1.1" xmlns="http://www.w3.org/2000/svg" xmlns:xlink="http://www.w3.org/1999/xlink">
    <!-- Generator: Sketch 60.1 (88133) - https://sketch.com -->
    <title>404</title>
    <desc>Created with Sketch.</desc>
    <g id="MAIN" stroke="none" stroke-width="1" fill="none" fill-rule="evenodd">
        <g id="DESKTOP-ERROR-404" transform="translate(-358.000000, -222.000000)">
            <g id="404" transform="translate(361.000000, 215.000000)">
                <g id="Group-17" transform="translate(660.351750, 72.132088) rotate(75.000000) translate(-660.351750, -72.132088) translate(622.851750, 22.632088)" fill="#9AC0A2">
                    <path d="M2.95792188,34.4193548 L7.63534123,34.4193548 L7.63534123,29.7419355 C7.63534123,28.2274194 8.86308317,27 10.3772767,27 C11.8914703,27 13.1192122,28.2274194 13.1192122,29.7419355 L13.1192122,34.4193548 L17.4740509,34.4193548 C18.9882445,34.4193548 20.2159864,35.6467742 20.2159864,37.1612903 C20.2159864,38.6754839 18.9882445,39.9032258 17.4740509,39.9032258 L13.1192122,39.9032258 L13.1192122,44.2580645 C13.1192122,45.7722581 11.8914703,47 10.3772767,47 C8.86308317,47 7.63534123,45.7722581 7.63534123,44.2580645 L7.63534123,39.9032258 L2.95792188,39.9032258 C1.44372833,39.9032258 0.215986395,38.6754839 0.215986395,37.1612903 C0.215986395,35.6467742 1.44372833,34.4193548 2.95792188,34.4193548" id="Fill-1"></path>
                    <path d="M17.9579219,7.41935484 L22.6353412,7.41935484 L22.6353412,2.74193548 C22.6353412,1.22741935 23.8630832,0 25.3772767,0 C26.8914703,0 28.1192122,1.22741935 28.1192122,2.74193548 L28.1192122,7.41935484 L32.4740509,7.41935484 C33.9882445,7.41935484 35.2159864,8.64677419 35.2159864,10.1612903 C35.2159864,11.6754839 33.9882445,12.9032258 32.4740509,12.9032258 L28.1192122,12.9032258 L28.1192122,17.2580645 C28.1192122,18.7722581 26.8914703,20 25.3772767,20 C23.8630832,20 22.6353412,18.7722581 22.6353412,17.2580645 L22.6353412,12.9032258 L17.9579219,12.9032258 C16.4437283,12.9032258 15.2159864,11.6754839 15.2159864,10.1612903 C15.2159864,8.64677419 16.4437283,7.41935484 17.9579219,7.41935484" id="Fill-3"></path>
                    <path d="M30.2159864,37 C30.2159864,38.6566667 31.5589864,40 33.2159864,40 C34.8729864,40 36.2159864,38.6566667 36.2159864,37 C36.2159864,35.3433333 34.8729864,34 33.2159864,34 C31.5589864,34 30.2159864,35.3433333 30.2159864,37" id="Fill-5"></path>
                    <path d="M12.9579219,84.4193548 L17.6353412,84.4193548 L17.6353412,79.7419355 C17.6353412,78.2274194 18.8630832,77 20.3772767,77 C21.8914703,77 23.1192122,78.2274194 23.1192122,79.7419355 L23.1192122,84.4193548 L27.4740509,84.4193548 C28.9882445,84.4193548 30.2159864,85.6467742 30.2159864,87.1612903 C30.2159864,88.6754839 28.9882445,89.9032258 27.4740509,89.9032258 L23.1192122,89.9032258 L23.1192122,94.2580645 C23.1192122,95.7722581 21.8914703,97 20.3772767,97 C18.8630832,97 17.6353412,95.7722581 17.6353412,94.2580645 L17.6353412,89.9032258 L12.9579219,89.9032258 C11.4437283,89.9032258 10.2159864,88.6754839 10.2159864,87.1612903 C10.2159864,85.6467742 11.4437283,84.4193548 12.9579219,84.4193548" id="Fill-7" transform="translate(20.215986, 87.000000) rotate(81.000000) translate(-20.215986, -87.000000) "></path>
                    <path d="M37.2159864,62 C37.2159864,63.6566667 38.5589864,65 40.2159864,65 C41.8729864,65 43.2159864,63.6566667 43.2159864,62 C43.2159864,60.3433333 41.8729864,59 40.2159864,59 C38.5589864,59 37.2159864,60.3433333 37.2159864,62" id="Fill-9"></path>
                    <path d="M53.2281113,52.558571 L57.9055306,52.558571 L57.9055306,47.8811516 C57.9055306,46.3666355 59.1332725,45.1392162 60.6474661,45.1392162 C62.1616596,45.1392162 63.3894016,46.3666355 63.3894016,47.8811516 L63.3894016,52.558571 L67.7442403,52.558571 C69.2584338,52.558571 70.4861758,53.7859904 70.4861758,55.3005065 C70.4861758,56.8147 69.2584338,58.042442 67.7442403,58.042442 L63.3894016,58.042442 L63.3894016,62.3972807 C63.3894016,63.9114742 62.1616596,65.1392162 60.6474661,65.1392162 C59.1332725,65.1392162 57.9055306,63.9114742 57.9055306,62.3972807 L57.9055306,58.042442 L53.2281113,58.042442 C51.7139177,58.042442 50.4861758,56.8147 50.4861758,55.3005065 C50.4861758,53.7859904 51.7139177,52.558571 53.2281113,52.558571" id="Fill-11"></path>
                    <path d="M58.2626329,79.2414387 C58.2626329,80.8981053 59.6056329,82.2414387 61.2626329,82.2414387 C62.9196329,82.2414387 64.2626329,80.8981053 64.2626329,79.2414387 C64.2626329,77.584772 62.9196329,76.2414387 61.2626329,76.2414387 C59.6056329,76.2414387 58.2626329,77.584772 58.2626329,79.2414387" id="Fill-13"></path>
                    <path d="M68.4001316,32.6012782 C68.4001316,34.2579449 69.7431316,35.6012782 71.4001316,35.6012782 C73.0571316,35.6012782 74.4001316,34.2579449 74.4001316,32.6012782 C74.4001316,30.9446116 73.0571316,29.6012782 71.4001316,29.6012782 C69.7431316,29.6012782 68.4001316,30.9446116 68.4001316,32.6012782" id="Fill-15"></path>
                </g>
                <g id="Group-17-Copy" transform="translate(317.000000, 58.151786) rotate(-73.000000) translate(-317.000000, -58.151786) translate(273.000000, 9.651786)" fill="#9AC0A2">
                    <path d="M2.95792188,34.4193548 L7.63534123,34.4193548 L7.63534123,29.7419355 C7.63534123,28.2274194 8.86308317,27 10.3772767,27 C11.8914703,27 13.1192122,28.2274194 13.1192122,29.7419355 L13.1192122,34.4193548 L17.4740509,34.4193548 C18.9882445,34.4193548 20.2159864,35.6467742 20.2159864,37.1612903 C20.2159864,38.6754839 18.9882445,39.9032258 17.4740509,39.9032258 L13.1192122,39.9032258 L13.1192122,44.2580645 C13.1192122,45.7722581 11.8914703,47 10.3772767,47 C8.86308317,47 7.63534123,45.7722581 7.63534123,44.2580645 L7.63534123,39.9032258 L2.95792188,39.9032258 C1.44372833,39.9032258 0.215986395,38.6754839 0.215986395,37.1612903 C0.215986395,35.6467742 1.44372833,34.4193548 2.95792188,34.4193548" id="Fill-1"></path>
                    <path d="M17.9579219,7.41935484 L22.6353412,7.41935484 L22.6353412,2.74193548 C22.6353412,1.22741935 23.8630832,0 25.3772767,0 C26.8914703,0 28.1192122,1.22741935 28.1192122,2.74193548 L28.1192122,7.41935484 L32.4740509,7.41935484 C33.9882445,7.41935484 35.2159864,8.64677419 35.2159864,10.1612903 C35.2159864,11.6754839 33.9882445,12.9032258 32.4740509,12.9032258 L28.1192122,12.9032258 L28.1192122,17.2580645 C28.1192122,18.7722581 26.8914703,20 25.3772767,20 C23.8630832,20 22.6353412,18.7722581 22.6353412,17.2580645 L22.6353412,12.9032258 L17.9579219,12.9032258 C16.4437283,12.9032258 15.2159864,11.6754839 15.2159864,10.1612903 C15.2159864,8.64677419 16.4437283,7.41935484 17.9579219,7.41935484" id="Fill-3"></path>
                    <path d="M30.2159864,37 C30.2159864,38.6566667 31.5589864,40 33.2159864,40 C34.8729864,40 36.2159864,38.6566667 36.2159864,37 C36.2159864,35.3433333 34.8729864,34 33.2159864,34 C31.5589864,34 30.2159864,35.3433333 30.2159864,37" id="Fill-5"></path>
                    <path d="M12.9579219,84.4193548 L17.6353412,84.4193548 L17.6353412,79.7419355 C17.6353412,78.2274194 18.8630832,77 20.3772767,77 C21.8914703,77 23.1192122,78.2274194 23.1192122,79.7419355 L23.1192122,84.4193548 L27.4740509,84.4193548 C28.9882445,84.4193548 30.2159864,85.6467742 30.2159864,87.1612903 C30.2159864,88.6754839 28.9882445,89.9032258 27.4740509,89.9032258 L23.1192122,89.9032258 L23.1192122,94.2580645 C23.1192122,95.7722581 21.8914703,97 20.3772767,97 C18.8630832,97 17.6353412,95.7722581 17.6353412,94.2580645 L17.6353412,89.9032258 L12.9579219,89.9032258 C11.4437283,89.9032258 10.2159864,88.6754839 10.2159864,87.1612903 C10.2159864,85.6467742 11.4437283,84.4193548 12.9579219,84.4193548" id="Fill-7"></path>
                    <path d="M37.2159864,62 C37.2159864,63.6566667 38.5589864,65 40.2159864,65 C41.8729864,65 43.2159864,63.6566667 43.2159864,62 C43.2159864,60.3433333 41.8729864,59 40.2159864,59 C38.5589864,59 37.2159864,60.3433333 37.2159864,62" id="Fill-9"></path>
                    <path d="M64.9579219,47.4193548 L69.6353412,47.4193548 L69.6353412,42.7419355 C69.6353412,41.2274194 70.8630832,40 72.3772767,40 C73.8914703,40 75.1192122,41.2274194 75.1192122,42.7419355 L75.1192122,47.4193548 L79.4740509,47.4193548 C80.9882445,47.4193548 82.2159864,48.6467742 82.2159864,50.1612903 C82.2159864,51.6754839 80.9882445,52.9032258 79.4740509,52.9032258 L75.1192122,52.9032258 L75.1192122,57.2580645 C75.1192122,58.7722581 73.8914703,60 72.3772767,60 C70.8630832,60 69.6353412,58.7722581 69.6353412,57.2580645 L69.6353412,52.9032258 L64.9579219,52.9032258 C63.4437283,52.9032258 62.2159864,51.6754839 62.2159864,50.1612903 C62.2159864,48.6467742 63.4437283,47.4193548 64.9579219,47.4193548" id="Fill-11"></path>
                    <path d="M69.2159864,77 C69.2159864,78.6566667 70.5589864,80 72.2159864,80 C73.8729864,80 75.2159864,78.6566667 75.2159864,77 C75.2159864,75.3433333 73.8729864,74 72.2159864,74 C70.5589864,74 69.2159864,75.3433333 69.2159864,77" id="Fill-13"></path>
                    <path d="M81.2159864,35 C81.2159864,36.6566667 82.5589864,38 84.2159864,38 C85.8729864,38 87.2159864,36.6566667 87.2159864,35 C87.2159864,33.3433333 85.8729864,32 84.2159864,32 C82.5589864,32 81.2159864,33.3433333 81.2159864,35" id="Fill-15"></path>
                </g>
                <g id="Group-17-Copy-4" transform="translate(570.000000, 255.151786) rotate(-73.000000) translate(-570.000000, -255.151786) translate(526.000000, 206.651786)" fill="#9AC0A2">
                    <path d="M2.95792188,34.4193548 L7.63534123,34.4193548 L7.63534123,29.7419355 C7.63534123,28.2274194 8.86308317,27 10.3772767,27 C11.8914703,27 13.1192122,28.2274194 13.1192122,29.7419355 L13.1192122,34.4193548 L17.4740509,34.4193548 C18.9882445,34.4193548 20.2159864,35.6467742 20.2159864,37.1612903 C20.2159864,38.6754839 18.9882445,39.9032258 17.4740509,39.9032258 L13.1192122,39.9032258 L13.1192122,44.2580645 C13.1192122,45.7722581 11.8914703,47 10.3772767,47 C8.86308317,47 7.63534123,45.7722581 7.63534123,44.2580645 L7.63534123,39.9032258 L2.95792188,39.9032258 C1.44372833,39.9032258 0.215986395,38.6754839 0.215986395,37.1612903 C0.215986395,35.6467742 1.44372833,34.4193548 2.95792188,34.4193548" id="Fill-1"></path>
                    <path d="M17.9579219,7.41935484 L22.6353412,7.41935484 L22.6353412,2.74193548 C22.6353412,1.22741935 23.8630832,0 25.3772767,0 C26.8914703,0 28.1192122,1.22741935 28.1192122,2.74193548 L28.1192122,7.41935484 L32.4740509,7.41935484 C33.9882445,7.41935484 35.2159864,8.64677419 35.2159864,10.1612903 C35.2159864,11.6754839 33.9882445,12.9032258 32.4740509,12.9032258 L28.1192122,12.9032258 L28.1192122,17.2580645 C28.1192122,18.7722581 26.8914703,20 25.3772767,20 C23.8630832,20 22.6353412,18.7722581 22.6353412,17.2580645 L22.6353412,12.9032258 L17.9579219,12.9032258 C16.4437283,12.9032258 15.2159864,11.6754839 15.2159864,10.1612903 C15.2159864,8.64677419 16.4437283,7.41935484 17.9579219,7.41935484" id="Fill-3"></path>
                    <path d="M30.2159864,37 C30.2159864,38.6566667 31.5589864,40 33.2159864,40 C34.8729864,40 36.2159864,38.6566667 36.2159864,37 C36.2159864,35.3433333 34.8729864,34 33.2159864,34 C31.5589864,34 30.2159864,35.3433333 30.2159864,37" id="Fill-5"></path>
                    <path d="M12.9579219,84.4193548 L17.6353412,84.4193548 L17.6353412,79.7419355 C17.6353412,78.2274194 18.8630832,77 20.3772767,77 C21.8914703,77 23.1192122,78.2274194 23.1192122,79.7419355 L23.1192122,84.4193548 L27.4740509,84.4193548 C28.9882445,84.4193548 30.2159864,85.6467742 30.2159864,87.1612903 C30.2159864,88.6754839 28.9882445,89.9032258 27.4740509,89.9032258 L23.1192122,89.9032258 L23.1192122,94.2580645 C23.1192122,95.7722581 21.8914703,97 20.3772767,97 C18.8630832,97 17.6353412,95.7722581 17.6353412,94.2580645 L17.6353412,89.9032258 L12.9579219,89.9032258 C11.4437283,89.9032258 10.2159864,88.6754839 10.2159864,87.1612903 C10.2159864,85.6467742 11.4437283,84.4193548 12.9579219,84.4193548" id="Fill-7"></path>
                    <path d="M37.2159864,62 C37.2159864,63.6566667 38.5589864,65 40.2159864,65 C41.8729864,65 43.2159864,63.6566667 43.2159864,62 C43.2159864,60.3433333 41.8729864,59 40.2159864,59 C38.5589864,59 37.2159864,60.3433333 37.2159864,62" id="Fill-9"></path>
                    <path d="M64.9579219,47.4193548 L69.6353412,47.4193548 L69.6353412,42.7419355 C69.6353412,41.2274194 70.8630832,40 72.3772767,40 C73.8914703,40 75.1192122,41.2274194 75.1192122,42.7419355 L75.1192122,47.4193548 L79.4740509,47.4193548 C80.9882445,47.4193548 82.2159864,48.6467742 82.2159864,50.1612903 C82.2159864,51.6754839 80.9882445,52.9032258 79.4740509,52.9032258 L75.1192122,52.9032258 L75.1192122,57.2580645 C75.1192122,58.7722581 73.8914703,60 72.3772767,60 C70.8630832,60 69.6353412,58.7722581 69.6353412,57.2580645 L69.6353412,52.9032258 L64.9579219,52.9032258 C63.4437283,52.9032258 62.2159864,51.6754839 62.2159864,50.1612903 C62.2159864,48.6467742 63.4437283,47.4193548 64.9579219,47.4193548" id="Fill-11"></path>
                    <path d="M69.2159864,77 C69.2159864,78.6566667 70.5589864,80 72.2159864,80 C73.8729864,80 75.2159864,78.6566667 75.2159864,77 C75.2159864,75.3433333 73.8729864,74 72.2159864,74 C70.5589864,74 69.2159864,75.3433333 69.2159864,77" id="Fill-13"></path>
                    <path d="M81.2159864,35 C81.2159864,36.6566667 82.5589864,38 84.2159864,38 C85.8729864,38 87.2159864,36.6566667 87.2159864,35 C87.2159864,33.3433333 85.8729864,32 84.2159864,32 C82.5589864,32 81.2159864,33.3433333 81.2159864,35" id="Fill-15"></path>
                </g>
                <g id="Group-17-Copy-3" transform="translate(350.000000, 244.151786) rotate(-114.000000) translate(-350.000000, -244.151786) translate(306.000000, 195.651786)" fill="#9AC0A2">
                    <path d="M2.95792188,34.4193548 L7.63534123,34.4193548 L7.63534123,29.7419355 C7.63534123,28.2274194 8.86308317,27 10.3772767,27 C11.8914703,27 13.1192122,28.2274194 13.1192122,29.7419355 L13.1192122,34.4193548 L17.4740509,34.4193548 C18.9882445,34.4193548 20.2159864,35.6467742 20.2159864,37.1612903 C20.2159864,38.6754839 18.9882445,39.9032258 17.4740509,39.9032258 L13.1192122,39.9032258 L13.1192122,44.2580645 C13.1192122,45.7722581 11.8914703,47 10.3772767,47 C8.86308317,47 7.63534123,45.7722581 7.63534123,44.2580645 L7.63534123,39.9032258 L2.95792188,39.9032258 C1.44372833,39.9032258 0.215986395,38.6754839 0.215986395,37.1612903 C0.215986395,35.6467742 1.44372833,34.4193548 2.95792188,34.4193548" id="Fill-1"></path>
                    <path d="M17.9579219,7.41935484 L22.6353412,7.41935484 L22.6353412,2.74193548 C22.6353412,1.22741935 23.8630832,0 25.3772767,0 C26.8914703,0 28.1192122,1.22741935 28.1192122,2.74193548 L28.1192122,7.41935484 L32.4740509,7.41935484 C33.9882445,7.41935484 35.2159864,8.64677419 35.2159864,10.1612903 C35.2159864,11.6754839 33.9882445,12.9032258 32.4740509,12.9032258 L28.1192122,12.9032258 L28.1192122,17.2580645 C28.1192122,18.7722581 26.8914703,20 25.3772767,20 C23.8630832,20 22.6353412,18.7722581 22.6353412,17.2580645 L22.6353412,12.9032258 L17.9579219,12.9032258 C16.4437283,12.9032258 15.2159864,11.6754839 15.2159864,10.1612903 C15.2159864,8.64677419 16.4437283,7.41935484 17.9579219,7.41935484" id="Fill-3"></path>
                    <path d="M30.2159864,37 C30.2159864,38.6566667 31.5589864,40 33.2159864,40 C34.8729864,40 36.2159864,38.6566667 36.2159864,37 C36.2159864,35.3433333 34.8729864,34 33.2159864,34 C31.5589864,34 30.2159864,35.3433333 30.2159864,37" id="Fill-5"></path>
                    <path d="M12.9579219,84.4193548 L17.6353412,84.4193548 L17.6353412,79.7419355 C17.6353412,78.2274194 18.8630832,77 20.3772767,77 C21.8914703,77 23.1192122,78.2274194 23.1192122,79.7419355 L23.1192122,84.4193548 L27.4740509,84.4193548 C28.9882445,84.4193548 30.2159864,85.6467742 30.2159864,87.1612903 C30.2159864,88.6754839 28.9882445,89.9032258 27.4740509,89.9032258 L23.1192122,89.9032258 L23.1192122,94.2580645 C23.1192122,95.7722581 21.8914703,97 20.3772767,97 C18.8630832,97 17.6353412,95.7722581 17.6353412,94.2580645 L17.6353412,89.9032258 L12.9579219,89.9032258 C11.4437283,89.9032258 10.2159864,88.6754839 10.2159864,87.1612903 C10.2159864,85.6467742 11.4437283,84.4193548 12.9579219,84.4193548" id="Fill-7"></path>
                    <path d="M37.2159864,62 C37.2159864,63.6566667 38.5589864,65 40.2159864,65 C41.8729864,65 43.2159864,63.6566667 43.2159864,62 C43.2159864,60.3433333 41.8729864,59 40.2159864,59 C38.5589864,59 37.2159864,60.3433333 37.2159864,62" id="Fill-9"></path>
                    <path d="M64.9579219,47.4193548 L69.6353412,47.4193548 L69.6353412,42.7419355 C69.6353412,41.2274194 70.8630832,40 72.3772767,40 C73.8914703,40 75.1192122,41.2274194 75.1192122,42.7419355 L75.1192122,47.4193548 L79.4740509,47.4193548 C80.9882445,47.4193548 82.2159864,48.6467742 82.2159864,50.1612903 C82.2159864,51.6754839 80.9882445,52.9032258 79.4740509,52.9032258 L75.1192122,52.9032258 L75.1192122,57.2580645 C75.1192122,58.7722581 73.8914703,60 72.3772767,60 C70.8630832,60 69.6353412,58.7722581 69.6353412,57.2580645 L69.6353412,52.9032258 L64.9579219,52.9032258 C63.4437283,52.9032258 62.2159864,51.6754839 62.2159864,50.1612903 C62.2159864,48.6467742 63.4437283,47.4193548 64.9579219,47.4193548" id="Fill-11"></path>
                    <path d="M69.2159864,77 C69.2159864,78.6566667 70.5589864,80 72.2159864,80 C73.8729864,80 75.2159864,78.6566667 75.2159864,77 C75.2159864,75.3433333 73.8729864,74 72.2159864,74 C70.5589864,74 69.2159864,75.3433333 69.2159864,77" id="Fill-13"></path>
                    <path d="M81.2159864,35 C81.2159864,36.6566667 82.5589864,38 84.2159864,38 C85.8729864,38 87.2159864,36.6566667 87.2159864,35 C87.2159864,33.3433333 85.8729864,32 84.2159864,32 C82.5589864,32 81.2159864,33.3433333 81.2159864,35" id="Fill-15"></path>
                </g>
                <g id="Group-17-Copy-2" transform="translate(59.000000, 63.151786) rotate(76.000000) translate(-59.000000, -63.151786) translate(15.000000, 14.651786)" fill="#9AC0A2">
                    <path d="M2.95792188,34.4193548 L7.63534123,34.4193548 L7.63534123,29.7419355 C7.63534123,28.2274194 8.86308317,27 10.3772767,27 C11.8914703,27 13.1192122,28.2274194 13.1192122,29.7419355 L13.1192122,34.4193548 L17.4740509,34.4193548 C18.9882445,34.4193548 20.2159864,35.6467742 20.2159864,37.1612903 C20.2159864,38.6754839 18.9882445,39.9032258 17.4740509,39.9032258 L13.1192122,39.9032258 L13.1192122,44.2580645 C13.1192122,45.7722581 11.8914703,47 10.3772767,47 C8.86308317,47 7.63534123,45.7722581 7.63534123,44.2580645 L7.63534123,39.9032258 L2.95792188,39.9032258 C1.44372833,39.9032258 0.215986395,38.6754839 0.215986395,37.1612903 C0.215986395,35.6467742 1.44372833,34.4193548 2.95792188,34.4193548" id="Fill-1"></path>
                    <path d="M17.9579219,7.41935484 L22.6353412,7.41935484 L22.6353412,2.74193548 C22.6353412,1.22741935 23.8630832,0 25.3772767,0 C26.8914703,0 28.1192122,1.22741935 28.1192122,2.74193548 L28.1192122,7.41935484 L32.4740509,7.41935484 C33.9882445,7.41935484 35.2159864,8.64677419 35.2159864,10.1612903 C35.2159864,11.6754839 33.9882445,12.9032258 32.4740509,12.9032258 L28.1192122,12.9032258 L28.1192122,17.2580645 C28.1192122,18.7722581 26.8914703,20 25.3772767,20 C23.8630832,20 22.6353412,18.7722581 22.6353412,17.2580645 L22.6353412,12.9032258 L17.9579219,12.9032258 C16.4437283,12.9032258 15.2159864,11.6754839 15.2159864,10.1612903 C15.2159864,8.64677419 16.4437283,7.41935484 17.9579219,7.41935484" id="Fill-3"></path>
                    <path d="M30.2159864,37 C30.2159864,38.6566667 31.5589864,40 33.2159864,40 C34.8729864,40 36.2159864,38.6566667 36.2159864,37 C36.2159864,35.3433333 34.8729864,34 33.2159864,34 C31.5589864,34 30.2159864,35.3433333 30.2159864,37" id="Fill-5"></path>
                    <path d="M12.9579219,84.4193548 L17.6353412,84.4193548 L17.6353412,79.7419355 C17.6353412,78.2274194 18.8630832,77 20.3772767,77 C21.8914703,77 23.1192122,78.2274194 23.1192122,79.7419355 L23.1192122,84.4193548 L27.4740509,84.4193548 C28.9882445,84.4193548 30.2159864,85.6467742 30.2159864,87.1612903 C30.2159864,88.6754839 28.9882445,89.9032258 27.4740509,89.9032258 L23.1192122,89.9032258 L23.1192122,94.2580645 C23.1192122,95.7722581 21.8914703,97 20.3772767,97 C18.8630832,97 17.6353412,95.7722581 17.6353412,94.2580645 L17.6353412,89.9032258 L12.9579219,89.9032258 C11.4437283,89.9032258 10.2159864,88.6754839 10.2159864,87.1612903 C10.2159864,85.6467742 11.4437283,84.4193548 12.9579219,84.4193548" id="Fill-7"></path>
                    <path d="M37.2159864,62 C37.2159864,63.6566667 38.5589864,65 40.2159864,65 C41.8729864,65 43.2159864,63.6566667 43.2159864,62 C43.2159864,60.3433333 41.8729864,59 40.2159864,59 C38.5589864,59 37.2159864,60.3433333 37.2159864,62" id="Fill-9"></path>
                    <path d="M64.9579219,47.4193548 L69.6353412,47.4193548 L69.6353412,42.7419355 C69.6353412,41.2274194 70.8630832,40 72.3772767,40 C73.8914703,40 75.1192122,41.2274194 75.1192122,42.7419355 L75.1192122,47.4193548 L79.4740509,47.4193548 C80.9882445,47.4193548 82.2159864,48.6467742 82.2159864,50.1612903 C82.2159864,51.6754839 80.9882445,52.9032258 79.4740509,52.9032258 L75.1192122,52.9032258 L75.1192122,57.2580645 C75.1192122,58.7722581 73.8914703,60 72.3772767,60 C70.8630832,60 69.6353412,58.7722581 69.6353412,57.2580645 L69.6353412,52.9032258 L64.9579219,52.9032258 C63.4437283,52.9032258 62.2159864,51.6754839 62.2159864,50.1612903 C62.2159864,48.6467742 63.4437283,47.4193548 64.9579219,47.4193548" id="Fill-11"></path>
                    <path d="M69.2159864,77 C69.2159864,78.6566667 70.5589864,80 72.2159864,80 C73.8729864,80 75.2159864,78.6566667 75.2159864,77 C75.2159864,75.3433333 73.8729864,74 72.2159864,74 C70.5589864,74 69.2159864,75.3433333 69.2159864,77" id="Fill-13"></path>
                    <path d="M81.2159864,35 C81.2159864,36.6566667 82.5589864,38 84.2159864,38 C85.8729864,38 87.2159864,36.6566667 87.2159864,35 C87.2159864,33.3433333 85.8729864,32 84.2159864,32 C82.5589864,32 81.2159864,33.3433333 81.2159864,35" id="Fill-15"></path>
                </g>
                <g id="Group-2" transform="translate(0.000000, 33.651786)" fill="#E8F1F4" stroke="#378244" stroke-width="5">
                    <path d="M192.5107,181.420652 L166.842799,181.420652 L166.842799,106.099514 C166.842799,97.7691286 160.065011,91.0158515 151.705282,91.0158515 L145.691016,91.0158515 C137.330564,91.0158515 130.553499,97.7691286 130.553499,106.099514 L130.553499,181.420652 L58.1525959,181.420652 C53.3793228,181.420652 49.5104289,177.565338 49.5104289,172.80954 C49.5104289,171.407346 49.8542664,170.026746 50.5116027,168.78651 L127.139684,24.2626371 C131.045418,16.8968 128.218871,7.77030239 120.827088,3.8789982 C120.626998,3.77318582 120.42474,3.67241213 120.219594,3.57595731 L115.696253,1.44747294 C108.400542,-1.98603075 99.68614,0.886019508 95.8822573,7.97616865 L2.42419865,182.19373 C0.832866817,185.160795 0,188.472651 0,191.837052 C0,203.133064 9.18970655,212.291233 20.5262302,212.291233 L130.553499,212.291233 L130.553499,259.91904 C130.553499,269.904993 138.67702,278 148.698149,278 C158.718555,278 166.842077,269.904993 166.842077,259.91904 L166.842077,212.291233 L192.5107,212.291233 C201.065463,212.291233 208,205.380317 208,196.855582 C208,188.331568 201.065463,181.420652 192.5107,181.420652 Z" id="Stroke-9"></path>
                    <path d="M671.5107,181.420652 L645.842799,181.420652 L645.842799,106.099514 C645.842799,97.7691286 639.065734,91.0158515 630.705282,91.0158515 L624.691016,91.0158515 C616.330564,91.0158515 609.553499,97.7691286 609.553499,106.099514 L609.553499,181.420652 L537.152596,181.420652 C532.380045,181.420652 528.510429,177.565338 528.510429,172.80954 C528.510429,171.407346 528.854989,170.026746 529.511603,168.78651 L606.140406,24.2626371 C610.045418,16.8968 607.219594,7.77030239 599.82781,3.8789982 C599.626998,3.77318582 599.42474,3.67241213 599.219594,3.57595731 L594.696253,1.44747294 C587.401264,-1.98603075 578.68614,0.886019508 574.882257,7.97616865 L481.424921,182.19373 C479.832867,185.160795 479,188.472651 479,191.837052 C479,203.133064 488.190429,212.291233 499.52623,212.291233 L609.553499,212.291233 L609.553499,259.91904 C609.553499,269.904993 617.677743,278 627.698149,278 C637.719278,278 645.842799,269.904993 645.842799,259.91904 L645.842799,212.291233 L671.5107,212.291233 C680.065463,212.291233 687,205.380317 687,196.855582 C687,188.331568 680.065463,181.420652 671.5107,181.420652 Z" id="Stroke-11"></path>
                    <path d="M342.584565,243.035703 C299.777719,243.035703 277.413917,217.805985 277.413917,144.846847 C277.413917,80.4714781 300.693155,46.5221777 343.5,46.5221777 C386.306845,46.5221777 409.586083,68.8224916 409.586083,144.846847 C409.586083,215.966709 385.39141,243.035703 342.584565,243.035703 L342.584565,243.035703 Z M342.178264,12 C280.374519,12 236,51.8333931 236,144.77894 C236,250.116842 280.374519,278 342.178264,278 C403.982009,278 451,247.461234 451,144.77894 C451,35.0155075 403.982009,12 342.178264,12 Z" id="Stroke-13"></path>
                </g>
                <g id="Group-3" transform="translate(283.601873, 24.500000) rotate(151.000000) translate(-283.601873, -24.500000) translate(272.101873, 4.000000)" fill="#9AC0A2">
                    <path d="M4.83731114,27.9281188 L9.5147305,27.9281188 L9.5147305,23.2506995 C9.5147305,21.7361834 10.7424724,20.508764 12.256666,20.508764 C13.7708595,20.508764 14.9986015,21.7361834 14.9986015,23.2506995 L14.9986015,27.9281188 L19.3534402,27.9281188 C20.8676337,27.9281188 22.0953757,29.1555382 22.0953757,30.6700543 C22.0953757,32.1842479 20.8676337,33.4119898 19.3534402,33.4119898 L14.9986015,33.4119898 L14.9986015,37.7668285 C14.9986015,39.2810221 13.7708595,40.508764 12.256666,40.508764 C10.7424724,40.508764 9.5147305,39.2810221 9.5147305,37.7668285 L9.5147305,33.4119898 L4.83731114,33.4119898 C3.32311759,33.4119898 2.09537566,32.1842479 2.09537566,30.6700543 C2.09537566,29.1555382 3.32311759,27.9281188 4.83731114,27.9281188" id="Fill-11"></path>
                    <path d="M0,3 C0,4.65666667 1.343,6 3,6 C4.657,6 6,4.65666667 6,3 C6,1.34333333 4.657,0 3,0 C1.343,0 0,1.34333333 0,3" id="Fill-15"></path>
                </g>
            </g>
        </g>
    </g>
</svg>