<?xml version="1.0" encoding="UTF-8"?>
<svg width="253px" height="93px" viewBox="0 0 253 93" version="1.1" xmlns="http://www.w3.org/2000/svg" xmlns:xlink="http://www.w3.org/1999/xlink">
    <!-- Generator: Sketch 60.1 (88133) - https://sketch.com -->
    <title>Group 5</title>
    <desc>Created with Sketch.</desc>
    <defs>
        <filter x="-22.8%" y="-138.6%" width="145.6%" height="359.1%" filterUnits="objectBoundingBox" id="filter-1">
            <feOffset dx="0" dy="5" in="SourceAlpha" result="shadowOffsetOuter1"></feOffset>
            <feGaussianBlur stdDeviation="15" in="shadowOffsetOuter1" result="shadowBlurOuter1"></feGaussianBlur>
            <feColorMatrix values="0 0 0 0 1   0 0 0 0 1   0 0 0 0 1  0 0 0 1 0" type="matrix" in="shadowBlurOuter1" result="shadowMatrixOuter1"></feColorMatrix>
            <feMerge>
                <feMergeNode in="shadowMatrixOuter1"></feMergeNode>
                <feMergeNode in="SourceGraphic"></feMergeNode>
            </feMerge>
        </filter>
    </defs>
    <g id="Symbols" stroke="none" stroke-width="1" fill="none" fill-rule="evenodd">
        <g id="Mobile-/-Nav-bar" transform="translate(6.000000, 7.000000)">
            <g filter="url(#filter-1)" id="Group-5">
                <g transform="translate(19.000000, 15.000000)">
                    <g id="Group-2" transform="translate(33.000000, 0.000000)" fill="#000000" font-family="Lora-Regular, Lora" font-weight="normal">
                        <text id="Knives-&amp;-Forks" font-size="21" letter-spacing="1.491334">
                            <tspan x="3" y="21">Knives &amp; Forks</tspan>
                        </text>
                        <text id="Community-Investment" font-size="12">
                            <tspan x="0" y="37">Community Investment Co-op</tspan>
                        </text>
                    </g>
                    <g id="Group-4">
                        <circle id="Oval" fill="#378244" opacity="0.160202753" cx="14.25" cy="20" r="14"></circle>
                        <path d="M12.25,10.1558439 L12.25,1.9045911 C12.25,0.924443721 12.6873333,0.118518426 13.25,0 C13.814,0.118518426 14.25,0.924443721 14.25,1.9045911 L14.25,10.1558439 C14.2225063,10.6289417 13.782945,11 13.25,11 C12.717055,11 12.2774937,10.6289417 12.25,10.1558439 Z" id="Path" fill="#000000" fill-rule="nonzero"></path>
                        <path d="M17.2497926,1.82422921 L17.2497926,9.94755483 C17.2497926,9.94755483 16.9553065,11.7059438 15.7795192,12.4381329 C14.6037319,13.1703219 13.8680559,13.1680516 13.8680559,13.1680516 L13.8680559,25 L12.25,25 L12.25,11.9988194 C12.25,11.9988194 12.25,11.8523816 13.2801622,11.8523816 C14.3103245,11.8523816 15.3383293,10.8307224 15.3383293,10.8307224 C15.6221168,10.5097102 15.7797651,10.0874521 15.7795192,9.64900331 L15.7795192,0 C16.6346336,0.13467167 17.2630982,0.914433745 17.2497926,1.82422921 Z" id="Path" fill="#000000" fill-rule="nonzero"></path>
                        <path d="M11.25,0 L11.25,10 C10.0869594,9.86828581 9.23218512,9.10564786 9.25028203,8.21583213 L9.25028203,1.78416787 C9.23218512,0.894352142 10.0869594,0.131714186 11.25,0 Z" id="Path" fill="#000000" fill-rule="nonzero"></path>
                        <path d="M22.2497402,19.1188557 C22.2788617,16.7115735 19.8569184,14.6592978 16.5237128,14 L16.3137949,30.9839619 L16.329569,30.9839619 L16.2786063,35.1538795 L16.2506981,37.3008236 C16.2324972,38.6870394 16.5722487,39.8309493 17.0272732,40 C17.4859378,39.8365843 17.8535975,38.6960555 17.8766521,37.3098396 L17.9033469,35.1572605 L17.955523,30.9873429 L22.1065592,31.009883 L22.2497402,19.1188557 Z M20.6832428,29.7127005 L17.9664436,29.6980494 L17.9931383,27.5939315 L18.0174063,25.6340702 C18.0174063,25.572085 18.0174063,25.5112267 18.0089125,25.4526225 L18.1302524,15.9091461 C19.6979632,16.4388383 20.8312774,18.1000433 20.8070094,20.0553966 L20.6832428,29.7127005 Z" id="Shape" fill="#000000" fill-rule="nonzero"></path>
                        <path d="M5.39814681,31.0102726 L9.54505069,30.9877335 L9.59717489,35.1574704 L9.62384308,37.3099562 C9.64081375,38.696112 10.0081075,39.8365914 10.4723765,40 C10.9269479,39.8309566 11.2663613,38.6870964 11.2493906,37.3009406 L11.2166615,35.1529626 L11.1645373,30.9832257 L11.1815079,30.9832257 L10.9705868,14 C7.64069933,14.6592692 5.22116699,16.7114559 5.25025956,19.1186338 L5.39814681,31.0102726 Z M6.6951907,20.0517533 C6.67215908,18.0964848 7.80313287,16.4353517 9.36928306,15.9056825 L9.49050212,25.4487452 C9.49050212,25.5073469 9.48201678,25.5682025 9.48201678,25.6301851 L9.50626059,27.5899614 L9.53292879,29.6939881 L6.81883414,29.7086386 L6.6951907,20.0517533 Z" id="Shape" fill="#000000" fill-rule="nonzero"></path>
                    </g>
                </g>
            </g>
        </g>
    </g>
</svg>