<?xml version="1.0" encoding="UTF-8"?>
<svg width="191px" height="141px" viewBox="0 0 191 141" version="1.1" xmlns="http://www.w3.org/2000/svg" xmlns:xlink="http://www.w3.org/1999/xlink">
    <!-- Generator: Sketch 60.1 (88133) - https://sketch.com -->
    <title>Logo</title>
    <desc>Created with Sketch.</desc>
    <g id="Symbols" stroke="none" stroke-width="1" fill="none" fill-rule="evenodd">
        <g id="Desktop-/-Footer" transform="translate(-1078.000000, -24.000000)">
            <g transform="translate(5.000000, 0.000000)" id="Logo">
                <g transform="translate(1073.000000, 24.000000)">
                    <g id="Asset-4" transform="translate(65.000000, 0.000000)">
                        <ellipse id="Oval" fill="#378244" opacity="0.146600632" cx="32.3125" cy="49" rx="32.3125" ry="32"></ellipse>
                        <path d="M30.0232143,23.0814634 L30.0232143,4.32861614 C30.0232143,2.10100846 30.897881,0.269360059 32.0232143,0 C33.1512143,0.269360059 34.0232143,2.10100846 34.0232143,4.32861614 L34.0232143,23.0814634 C33.9682269,24.1566856 33.0891044,25 32.0232143,25 C30.9573242,25 30.0782016,24.1566856 30.0232143,23.0814634 Z" id="Path" fill="#000000" fill-rule="nonzero"></path>
                        <path d="M43.0226752,4.30518095 L43.0226752,23.4762294 C43.0226752,23.4762294 42.2570111,27.6260273 39.1999642,29.3539936 C36.1429173,31.0819598 34.2301595,31.0766017 34.2301595,31.0766017 L34.2301595,59 L30.0232143,59 L30.0232143,28.3172138 C30.0232143,28.3172138 30.0232143,27.9716206 32.7016361,27.9716206 C35.3800579,27.9716206 38.0528705,25.5605049 38.0528705,25.5605049 C38.790718,24.802916 39.2006035,23.806387 39.1999642,22.7716478 L39.1999642,0 C41.4232617,0.317825141 43.0572697,2.15806364 43.0226752,4.30518095 Z" id="Path" fill="#000000" fill-rule="nonzero"></path>
                        <path d="M25.0232143,0 L25.0232143,24 C22.6971331,23.683886 20.9875845,21.8535549 21.0237783,19.7179971 L21.0237783,4.28200289 C20.9875845,2.14644514 22.6971331,0.316114047 25.0232143,0 Z" id="Path" fill="#000000" fill-rule="nonzero"></path>
                        <path d="M51.0226513,45.0096229 C51.0857481,39.3617685 45.8382041,34.546814 38.6162587,33 L38.1614365,72.8469874 L38.1956139,72.8469874 L38.0851946,82.6302557 L38.0247269,87.6673169 C37.9852915,90.9195925 38.7214199,93.603381 39.7073061,94 C40.7010795,93.6166016 41.4976756,90.9407456 41.5476272,87.6884699 L41.6054658,82.6381881 L41.7185141,72.8549198 L50.7124258,72.9078023 L51.0226513,45.0096229 Z M47.6285736,69.8644127 L41.7421754,69.830039 L41.800014,64.8934547 L41.8525946,60.2953186 C41.8525946,60.1498916 41.8525946,60.0071088 41.8341914,59.8696142 L42.0970944,37.4791504 C45.4938012,38.7218899 47.9493152,42.6193325 47.8967346,47.2068921 L47.6285736,69.8644127 Z" id="Shape" fill="#000000" fill-rule="nonzero"></path>
                        <path d="M12.344199,72.9087166 L21.3291575,72.8558363 L21.4420932,82.6386806 L21.4998743,87.6887434 C21.5366441,90.9408782 22.3324472,93.6166183 23.3383633,94 C24.3232681,93.6033982 25.0586637,90.9197261 25.0218939,87.6675913 L24.9509808,82.6281045 L24.838045,72.8452603 L24.8748148,72.8452603 L24.417819,33 C17.2030628,34.546747 11.9607428,39.3614928 12.0237767,45.0091023 L12.344199,72.9087166 Z M15.1544608,47.1983442 C15.104559,42.6109835 17.5550022,38.7137099 20.9483276,37.4710242 L21.2109689,59.8605175 C21.2109689,59.9980062 21.192584,60.1407828 21.192584,60.2862035 L21.2451122,64.8841403 L21.3028933,69.8205106 L15.4223549,69.8548828 L15.1544608,47.1983442 Z" id="Shape" fill="#000000" fill-rule="nonzero"></path>
                    </g>
                    <text id="Knives-&amp;-Forks" font-family="Lora-Regular, Lora" font-size="25" font-weight="normal" letter-spacing="1.594445" fill="#000000">
                        <tspan x="0" y="119">Knives &amp; Forks</tspan>
                    </text>
                    <text id="Community-Investment" font-family="Lato-Regular, Lato" font-size="14" font-weight="normal" letter-spacing="0.288889" fill="#000000">
                        <tspan x="0" y="138">Community Investment Co-op</tspan>
                    </text>
                </g>
            </g>
        </g>
    </g>
</svg>