<?xml version="1.0" encoding="UTF-8"?>
<svg width="33px" height="33px" viewBox="0 0 33 33" version="1.1" xmlns="http://www.w3.org/2000/svg" xmlns:xlink="http://www.w3.org/1999/xlink">
    <!-- Generator: Sketch 60.1 (88133) - https://sketch.com -->
    <title>Play Button</title>
    <desc>Created with Sketch.</desc>
    <g id="Mobile" stroke="none" stroke-width="1" fill="none" fill-rule="evenodd">
        <g id="MOBILE-EVENTS" transform="translate(-171.000000, -1978.000000)" fill="#FFFFFF">
            <g id="Event-Video" transform="translate(0.000000, 1927.000000)">
                <g id="Play-Button" transform="translate(171.496815, 51.406011)">
                    <g id="Group-3" transform="translate(0.000000, 0.077362)">
                        <path d="M31.8867512,15.8991267 C31.8007415,24.0289513 25.6341073,30.7910147 17.4519415,31.6353443 C9.15270244,32.4915876 1.46536585,26.6377549 0.198790244,18.4970995 C-1.17908293,9.64192812 4.74357073,1.61561389 13.6870244,0.327690234 C18.0828878,-0.30528618 22.0764878,0.800991347 25.6253659,3.45590269 C26.2229073,3.9029007 26.3432585,4.41704898 25.9797073,4.8897312 C25.619278,5.35854531 25.1064976,5.36365121 24.4892878,4.92423468 C19.5737756,1.42422014 14.385561,0.977067407 9.03734634,3.78329895 C3.88581463,6.48648422 1.00362927,12.5061812 1.99797073,18.1158593 C3.06489756,24.1363299 7.66602927,28.7163188 13.5830634,29.6477581 C21.4611512,30.887872 28.6572488,25.656185 29.7884878,17.817087 C30.2698927,14.4804611 29.548722,11.364936 27.7571902,8.49557704 C27.6249756,8.28391444 27.4674732,8.063742 27.4215805,7.8284066 C27.3338537,7.38001607 27.5420878,7.02244861 27.9655805,6.84652727 C28.4412098,6.64894456 28.8395707,6.78819627 29.1281951,7.22080494 C30.1587512,8.76618955 30.9378341,10.4294739 31.3266732,12.2403652 C31.5851707,13.4447378 31.7048976,14.678508 31.8867512,15.8991267" id="Fill-1"></path>
                    </g>
                    <path d="M11.3030801,23.0505255 C15.4078239,20.7093642 19.408779,18.4270028 23.5105485,16.0873889 C19.4151973,13.7514887 15.4151815,11.4697462 11.3026104,9.12409765 C11.3026104,9.8816869 11.3129423,10.5433396 11.2969748,11.2043734 C11.2914958,11.4302885 11.2983837,11.747498 11.1618772,11.8601461 C10.8888643,12.085597 10.5203594,12.3285331 10.1920863,12.3272952 C9.72276698,12.3252836 9.43159489,11.9416922 9.42658547,11.4561294 C9.41312268,10.1413345 9.39840753,8.82576593 9.4337865,7.5117447 C9.45523305,6.70835348 10.2047664,6.364684 10.9671363,6.79345848 C13.0051845,7.94005496 15.0329007,9.10413665 17.0645305,10.2618742 C19.8748109,11.8633956 22.6846216,13.4656906 25.494902,15.067212 C26.6368914,15.7180332 26.6403354,16.4575183 25.496937,17.1092679 C20.722967,19.8298427 15.9480577,22.5490249 11.1722092,25.2663502 C10.0474395,25.9064946 9.42235878,25.5475062 9.42173261,24.2655154 C9.42032371,21.3454854 9.42126297,18.4256102 9.42126297,15.5057349 C9.42126297,15.4091794 9.41813209,15.3121597 9.42329805,15.215759 C9.45507651,14.622345 9.82671229,14.2341114 10.3605278,14.2342662 C10.893404,14.2344209 11.2894607,14.6229639 11.293844,15.2166874 C11.3077764,17.0922469 11.3016712,18.9679611 11.3029235,20.8436754 C11.3033931,21.5385964 11.3030801,22.2336722 11.3030801,23.0505255" id="Fill-4"></path>
                </g>
            </g>
        </g>
    </g>
</svg>